<?xml version="1.0" encoding="UTF-8"?>
<!DOCTYPE svg PUBLIC "-//W3C//DTD SVG 1.1//EN" "http://www.w3.org/Graphics/SVG/1.1/DTD/svg11.dtd">
<!-- Creator: CorelDRAW X7 -->
<svg xmlns="http://www.w3.org/2000/svg" xml:space="preserve" width="124.372mm" height="130.3mm" version="1.1" style="shape-rendering:geometricPrecision; text-rendering:geometricPrecision; image-rendering:optimizeQuality; fill-rule:evenodd; clip-rule:evenodd"
viewBox="0 0 111462 116775"
 xmlns:xlink="http://www.w3.org/1999/xlink">
 <defs>
  <style type="text/css">
   <![CDATA[
    .str0 {stroke:#332C2B;stroke-width:158.091}
    .fil0 {fill:black}
    .fil4 {fill:#9B0A09}
    .fil2 {fill:#E6E6E6}
    .fil3 {fill:#F01818}
    .fil1 {fill:white}
   ]]>
  </style>
 </defs>
 <g id="Layer_x0020_1">
  <metadata id="CorelCorpID_0Corel-Layer"/>
  <g id="_847915136">
   <path class="fil0" d="M110151 61338c285,-633 -411,-3288 -917,-5565 -506,-2276 -822,-4173 -727,-4521 95,-348 601,854 759,696 158,-158 -32,-1676 411,-2498 442,-822 1517,-948 1739,-1518 221,-569 -411,-1580 -506,-2339 -95,-759 348,-1265 31,-1454 -316,-190 -1391,-64 -1991,-854 -601,-790 -727,-2498 -1297,-3162 -569,-664 -1580,-284 -2086,-1043 -506,-759 -506,-2656 -980,-3826 -475,-1169 -1423,-1612 -2182,-2371 -759,-759 -1328,-1834 -1865,-1960 -538,-126 -1044,696 -1644,632 -601,-63 -1297,-1011 -1929,-980 -632,32 -1201,1044 -1676,1644 -474,601 -853,791 -1359,506 -506,-284 -1138,-1043 -1960,-2561 -822,-1517 -1834,-3794 -3320,-6734 -1486,-2940 -3446,-6545 -5691,-9959 -2245,-3415 -4774,-6640 -7619,-8979 -2846,-2340 -6007,-3794 -9643,-4300 -3636,-506 -7746,-63 -11888,1929 -4142,1992 -8315,5533 -11603,10307 -3288,4774 -5691,10781 -7461,15491 -1771,4711 -2909,8126 -4553,12141 -1644,4015 -3794,8631 -5059,11066 -1264,2434 -1644,2687 -2150,2055 -505,-633 -1138,-2150 -1675,-1486 -538,664 -980,3509 -1549,4774 -569,1264 -1265,948 -1708,1770 -442,822 -632,2783 -1233,3636 -600,854 -1612,601 -2624,1328 -1012,727 -2023,2434 -2877,2182 -853,-253 -1549,-2467 -2055,-2024 -506,443 -822,3541 -1960,5438 -1138,1897 -3099,2593 -3383,3446 -285,854 1107,1866 1265,3699 158,1834 -917,4490 -2245,6039 -1328,1549 -2909,1992 -2940,2751 -32,758 1486,1833 1897,2845 411,1012 -285,1960 126,2561 411,601 1929,854 2055,2087 127,1233 -1138,3446 -980,4774 158,1328 1739,1770 2181,2719 443,948 -252,2402 127,2908 379,506 1834,64 2656,854 822,790 1011,2814 1928,3130 917,316 2561,-1075 3921,-917 1359,158 2434,1865 4679,3731 2245,1865 5659,3889 7366,3857 1708,-32 1708,-2118 2688,-2245 980,-126 2940,1708 4805,2719 1866,1012 3636,1202 4553,822 917,-379 980,-1328 1423,-1422 442,-95 1264,663 2181,1043 917,379 1929,379 3194,284 1264,-94 2782,-284 3793,-253 1012,32 1518,285 3067,633 1549,348 4142,790 6134,1201 1992,411 3383,791 5627,696 2245,-95 5344,-664 8537,-1044 3193,-379 6481,-569 9453,-1327 2972,-759 5628,-2087 8853,-3447 3224,-1359 7018,-2750 9706,-3730 2687,-980 4268,-1549 4236,-2182 -31,-632 -1675,-1328 -1201,-1834 474,-505 3067,-822 4774,-1454 1707,-632 2529,-1581 2087,-2055 -443,-474 -2150,-474 -2056,-1296 95,-822 1992,-2466 2372,-3193 379,-728 -759,-538 -1328,-1139 -569,-600 -569,-1991 -1233,-2624 -664,-632 -1992,-506 -2182,-1517 -189,-1012 759,-3162 1202,-5059 442,-1897 379,-3541 -127,-4015 -506,-474 -1454,221 -1486,-980 -31,-1202 854,-4300 538,-5723 -316,-1423 -1834,-1170 -2340,-1802 -506,-632 0,-2150 474,-2782 475,-632 917,-380 1075,-1518 158,-1138 32,-3667 569,-3983 538,-316 1739,1580 2182,1138 443,-443 126,-3225 601,-3921 474,-695 1739,696 2023,64z"/>
   <path class="fil1" d="M90771 31982c569,-47 1644,680 2466,1265 822,585 1391,1027 1912,664 522,-364 996,-1534 1502,-1787 506,-253 1044,411 1423,538 379,126 601,-285 790,-332 190,-47 348,269 648,237 301,-32 743,-411 1455,174 711,585 1691,2134 2229,2782 537,648 632,395 790,1012 158,616 380,2102 648,2719 269,616 585,363 680,569 95,205 -32,869 237,1075 269,205 933,-48 1439,379 506,427 853,1534 1359,2261 506,727 1170,1075 1597,1644 427,569 616,1359 284,1612 -332,253 -1185,-31 -1517,538 -332,569 -143,1992 -538,2007 -395,16 -1375,-1375 -1533,-964 -158,411 506,2624 1012,4853 505,2229 853,4474 948,5675 95,1202 -63,1360 -364,1281 -300,-79 -742,-395 -1075,174 -331,569 -553,2023 -932,2387 -380,363 -917,-364 -1360,284 -442,648 -790,2672 -1201,3968 -411,1296 -885,1865 -1075,1533 -190,-332 -95,-1565 -696,-1565 -600,0 -1897,1233 -1912,522 -16,-711 1249,-3367 838,-3320 -411,48 -2498,2798 -3352,3462 -853,664 -474,-758 -521,-1027 -48,-269 -522,616 -1107,1280 -585,664 -1281,1107 -1549,1059 -269,-47 -111,-585 -459,-363 -347,221 -1201,1201 -2403,1944 -1201,743 -2750,1249 -2671,743 79,-506 1786,-2023 2814,-3715 1027,-1691 1375,-3557 948,-3335 -427,221 -1628,2529 -2292,2861 -664,332 -790,-1312 -1059,-1755 -269,-442 -680,316 -1217,-237 -538,-553 -1202,-2418 -2024,-2735 -822,-316 -1802,917 -2624,1518 -822,601 -1486,569 -1518,-427 -31,-996 570,-2956 412,-4015 -159,-1059 -1075,-1217 -1660,-2039 -585,-822 -838,-2308 -1565,-3336 -727,-1027 -1929,-1596 -1613,-2450 316,-854 2150,-1992 2703,-2861 554,-870 -173,-1470 -490,-2340 -316,-869 -221,-2007 -15,-3177 205,-1170 521,-2371 980,-2862 458,-490 1059,-268 1011,-1138 -47,-869 -743,-2829 -648,-3572 95,-743 980,-269 1360,-680 379,-411 253,-1707 964,-1265 711,443 2261,2624 2861,3004 601,379 253,-1044 901,-1344 649,-300 2293,522 2767,316 474,-205 -221,-1438 332,-917 553,522 2355,2798 2561,2909 205,111 -1186,-1944 -1850,-3383 -664,-1438 -601,-2260 -31,-2308z"/>
   <path class="fil2" d="M90801 32429c-48,86 -22,350 -10,430 63,414 243,865 418,1243 176,382 378,757 584,1123 285,509 586,1008 884,1509 102,171 205,344 300,519 135,249 258,564 -43,785 -146,106 -338,114 -495,30 -280,-151 -1222,-1337 -1463,-1624 -203,-240 -423,-514 -649,-775 -63,181 -183,334 -390,423 -441,192 -1243,-78 -1698,-193 -207,-53 -863,-218 -1058,-127 -9,4 -17,10 -24,16 -66,63 -111,222 -132,307 -94,371 -107,881 -506,1069 -226,107 -464,52 -667,-76 -471,-298 -1167,-1186 -1542,-1627 -286,-336 -869,-1055 -1252,-1332 -42,122 -83,288 -100,354 -75,276 -165,576 -363,791 -68,73 -147,135 -234,183 -205,115 -425,145 -655,161 -61,4 -276,13 -346,41 -5,15 -8,36 -9,47 -49,387 196,1308 292,1702 135,550 328,1230 359,1790 20,374 -50,730 -345,987l0 0c577,633 941,1023 1304,981 537,-63 1075,-1075 2276,-838 1201,237 3067,1723 4553,1928 1486,206 2592,-869 3889,-932 1296,-63 2782,885 3509,2513 727,1629 696,3937 1660,4679 964,744 2924,-79 3067,1613 142,1691 -1534,5896 -2846,8505 -1312,2608 -2260,3620 -2608,2956 -348,-664 -95,-3004 16,-4837 110,-1834 79,-3162 -680,-2024 -759,1138 -2245,4743 -3763,6608 -1298,1596 -2619,1919 -4390,2434 194,356 433,793 634,1001 58,60 88,87 167,69 235,-51 370,-154 639,-100 207,41 365,170 473,348 186,306 369,1250 543,1542 276,-215 769,-943 925,-1173 263,-385 904,-1439 1294,-1641 145,-76 313,-92 467,-30 587,238 321,1227 196,1671 -224,800 -591,1616 -1022,2325 -135,222 -279,438 -430,650 -471,664 -1000,1276 -1532,1892 -87,101 -328,372 -522,617 499,-155 1178,-488 1410,-618 106,-58 210,-119 313,-183 523,-324 1001,-710 1458,-1120 273,-246 639,-630 940,-821 202,-129 442,-177 658,-46 150,91 195,182 233,288 339,-169 851,-663 1021,-856 43,-49 86,-100 127,-150 209,-255 396,-524 589,-790 76,-104 154,-212 240,-307 160,-177 377,-298 622,-202 168,65 275,213 306,387 27,154 -8,396 -29,611 168,-152 331,-328 477,-484 292,-313 574,-636 855,-957 367,-419 731,-844 1113,-1248 224,-239 625,-685 964,-724 116,-13 231,11 330,72 383,237 239,751 139,1097 -114,389 -257,777 -392,1159 -72,204 -252,688 -349,1056 133,-72 264,-151 328,-186 306,-174 712,-403 1070,-403 148,0 289,37 416,112 366,217 485,665 555,1056 4,24 9,56 14,92 159,-332 307,-751 359,-915 154,-488 277,-991 401,-1488 176,-704 458,-2013 857,-2598 196,-286 467,-469 820,-476 122,-2 241,17 359,45 49,11 189,52 257,59 138,-170 335,-857 392,-1049 115,-387 245,-876 447,-1223 196,-335 493,-560 892,-555 219,3 350,60 509,118 16,-245 -12,-630 -22,-756 -63,-803 -185,-1621 -315,-2416 -176,-1070 -383,-2138 -623,-3196 -236,-1039 -509,-2067 -754,-3104 -106,-447 -405,-1578 -239,-2009 53,-138 151,-251 287,-313 464,-213 943,319 1247,605 48,45 143,137 240,222 28,-211 47,-469 58,-571 38,-343 93,-749 270,-1051 106,-183 256,-327 442,-427 191,-103 399,-150 612,-175 99,-12 455,-28 566,-63 71,-209 -186,-736 -290,-892 -22,-34 -45,-66 -69,-98 -25,-35 -52,-68 -80,-101 -203,-237 -457,-444 -690,-651 -313,-278 -596,-560 -836,-905 -190,-273 -347,-572 -496,-868 -175,-346 -495,-1062 -784,-1306 -371,-313 -986,-33 -1422,-366 -268,-205 -337,-538 -358,-855 -5,-71 -4,-183 -9,-279 -65,-19 -126,-41 -206,-88 -230,-137 -378,-359 -483,-599 -183,-422 -295,-975 -389,-1427 -93,-448 -169,-918 -282,-1360 -12,-46 -53,-207 -88,-244 -49,-51 -130,-107 -186,-154 -157,-133 -296,-281 -427,-439 -386,-465 -735,-991 -1097,-1478 -297,-398 -690,-930 -1072,-1244 -513,-422 -616,-128 -1123,-74 -198,21 -382,-29 -553,-129 -29,-16 -58,-37 -88,-58 -59,50 -119,104 -184,146 -247,159 -519,209 -802,115 -249,-83 -471,-269 -690,-412 -71,-46 -297,-196 -391,-150 -181,91 -509,606 -626,781 -221,331 -490,743 -819,972 -840,586 -1758,-188 -2429,-666 -409,-291 -1721,-1221 -2169,-1183 -2,0 -4,0 -7,0z"/>
   <path class="fil1 str0" d="M22843 54667c-237,-728 -743,-1233 -1138,-649 -395,585 -680,2261 -1107,3399 -426,1138 -995,1739 -1343,1929 -348,189 -474,-32 -933,774 -458,807 -1249,2640 -1849,3605 -601,964 -1012,1059 -1945,1549 -932,490 -2387,1375 -3319,1296 -933,-79 -1344,-1122 -1645,-711 -300,411 -490,2276 -1122,3493 -632,1217 -1707,1787 -2355,2182 -648,395 -870,616 -696,1660 174,1043 743,2908 664,4489 -79,1581 -806,2877 -1723,4031 -917,1154 -2023,2166 -2340,2972 -316,806 158,1407 427,2087 269,680 332,1438 712,2039 379,601 1075,1043 1501,1897 427,854 585,2118 522,3209 -63,1091 -348,2007 -111,2735 238,727 996,1264 1265,2086 269,822 47,1929 206,2624 158,696 695,980 1248,1407 554,427 1123,996 1486,1407 364,411 522,664 870,822 348,158 885,222 1675,253 791,32 1834,32 2229,-664 396,-695 143,-2086 506,-1865 364,221 1344,2055 2561,3683 1217,1628 2672,3051 3952,3920 1281,870 2387,1186 3209,1328 822,143 1360,111 1929,-237 569,-347 1170,-1011 1976,-1122 806,-111 1818,332 2845,838 1028,506 2071,1075 3099,1501 1027,427 2039,712 2703,838 664,127 980,95 1296,-664 316,-758 632,-2244 1233,-2229 601,16 1486,1534 2182,2324 695,791 1201,854 2402,885 1202,32 3099,32 4332,48 1233,16 1802,47 3193,237 1391,190 3604,538 5659,838 2055,300 3952,553 5581,648 1628,95 2987,32 4078,-16 1091,-47 1913,-79 1644,-569 -269,-490 -1628,-1438 -869,-1549 759,-111 3636,616 6165,885 2529,269 4711,79 6370,-190 1660,-268 2798,-616 3937,-1090 1138,-475 2276,-1075 1849,-1723 -427,-648 -2418,-1344 -2482,-1471 -63,-126 1802,317 3399,396 1597,79 2925,-206 3873,-554 949,-347 1518,-758 2039,-1106 522,-348 996,-632 1992,-901 996,-269 2514,-522 3731,-838 1217,-316 2134,-696 2877,-1043 743,-348 1312,-664 1091,-1028 -222,-363 -1233,-775 -807,-1328 427,-553 2293,-1249 3620,-1755 1328,-505 2119,-821 2514,-1169 395,-348 395,-727 126,-822 -268,-95 -806,95 -1817,426 -1012,333 -2498,807 -2403,554 95,-253 1770,-1233 2877,-2182 1106,-948 1644,-1865 1596,-2577 -47,-711 -679,-1217 -980,-1849 -300,-632 -268,-1391 -569,-1913 -300,-521 -932,-806 -1802,-474 -869,332 -1976,1280 -1960,775 16,-506 1154,-2466 1913,-4221 758,-1755 1138,-3304 1296,-4426 158,-1123 95,-1818 -269,-2055 -363,-238 -1027,-16 -1296,-933 -269,-917 -142,-2972 -79,-4237 63,-1264 63,-1739 -332,-1992 -395,-252 -1186,-284 -1581,-743 -395,-458 -395,-1343 -332,-2371 63,-1027 190,-2197 -253,-2450 -442,-253 -1454,411 -2071,601 -616,189 -837,-95 -932,-506 -95,-411 -64,-949 -728,-411 -663,537 -2023,2150 -2576,2450 -554,300 -301,-711 -696,-648 -395,63 -1438,1201 -2244,1597 -807,395 -1376,47 -1866,363 -490,316 -901,1296 -1312,1439 -411,142 -822,-554 -1186,-411 -363,142 -679,1122 -1154,869 -474,-253 -1106,-1739 -1470,-1596 -363,142 -458,1912 -901,3114 -442,1201 -1233,1833 -1976,2292 -743,458 -1438,743 -2134,-237 -695,-980 -1391,-3225 -1944,-3446 -554,-222 -965,1580 -1360,1976 -395,395 -774,-617 -1517,-538 -743,79 -1850,1249 -2656,1154 -806,-95 -1312,-1454 -2213,-2118 -901,-664 -2197,-632 -3462,-269 -1265,364 -2498,1059 -3462,1628 -964,569 -1660,1012 -2261,1233 -600,222 -1106,222 -1786,-616 -680,-838 -1533,-2514 -2387,-2561 -854,-47 -1707,1533 -2355,2229 -649,695 -1091,506 -1550,364 -458,-143 -932,-238 -1169,-886 -238,-648 -238,-1849 -728,-1865 -490,-16 -1470,1154 -2434,1849 -964,696 -1913,917 -2039,728 -127,-190 569,-791 822,-2340 253,-1549 63,-4047 -569,-4094 -633,-48 -1708,2355 -2783,3967 -1075,1613 -2149,2435 -2845,1692 -696,-743 -1012,-3051 -1486,-3557 -474,-506 -1107,791 -1771,743 -663,-47 -1359,-1438 -2402,-2197 -1044,-759 -2435,-885 -3225,-569 -791,316 -980,1075 -1249,1328 -269,253 -617,0 -964,-807 -348,-806 -696,-2165 -917,-1596 -221,569 -316,3067 -980,2988 -664,-79 -1897,-2735 -2482,-2988 -585,-253 -522,1897 -696,2260 -174,364 -585,-1059 -853,-2118 -269,-1059 -396,-1755 -569,-2450 -174,-696 -396,-1391 -965,-917 -569,474 -1486,2118 -2197,2466 -711,348 -1217,-601 -1676,-1043 -458,-443 -869,-380 -758,-1154 110,-775 743,-2387 1549,-4047 806,-1660 1786,-3367 2292,-4695 506,-1328 537,-2276 300,-3003z"/>
   <path class="fil3" d="M90691 30021c-268,-1090 -1533,-3556 -3446,-7034 -1913,-3478 -4474,-7968 -6702,-11208 -2229,-3241 -4126,-5233 -6197,-6798 -2071,-1565 -4316,-2703 -6371,-3367 -2055,-664 -3920,-853 -6102,-664 -2181,190 -4679,759 -7193,1897 -2513,1138 -5042,2846 -7224,4838 -2181,1991 -4015,4268 -5706,7003 -1692,2734 -3241,5927 -4727,9374 -1486,3446 -2909,7145 -4347,10955 -1439,3809 -2893,7730 -4300,11018 -1407,3288 -2767,5944 -3794,8299 -1028,2356 -1723,4411 -2514,6339 -790,1929 -1675,3731 -2007,4916 -332,1186 -111,1755 616,1550 728,-206 1961,-1186 2751,-1755 790,-569 1138,-727 1454,-190 316,538 601,1771 1028,2530 427,758 996,1043 1359,837 364,-205 522,-901 680,-585 158,317 316,1644 648,1565 332,-79 838,-1565 1297,-1723 458,-158 869,1012 1233,1486 363,475 679,253 1264,158 585,-94 1439,-63 2024,79 585,143 901,396 1470,791 569,395 1391,933 1913,1233 521,300 743,363 1201,47 458,-316 1154,-1011 1691,-885 538,127 917,1075 1233,1913 317,838 570,1565 949,1676 379,110 885,-396 1375,-949 490,-553 964,-1154 1360,-1818 395,-664 711,-1391 1122,-1881 411,-490 917,-743 1399,-103 482,640 941,2174 933,3446 -8,1273 -482,2285 -79,2095 403,-190 1683,-1581 2608,-1573 925,8 1494,1415 2189,1865 696,451 1518,-55 2229,-687 712,-633 1312,-1391 1692,-1644 379,-253 537,0 917,506 379,505 980,1264 1462,1960 482,695 846,1328 1494,1296 648,-31 1581,-727 2853,-1525 1273,-799 2885,-1700 4245,-1779 1359,-79 2466,664 3153,1320 688,656 957,1225 1636,1241 680,16 1771,-522 2538,-790 766,-269 1209,-269 1620,-617 411,-348 790,-1043 1486,-443 696,601 1707,2498 2632,3028 925,530 1763,-308 2268,-1684 506,-1375 680,-3288 1115,-3802 435,-513 1130,372 1810,846 680,474 1344,538 1850,427 505,-111 853,-395 679,-617 -174,-221 -869,-379 -1249,-632 -379,-253 -442,-601 -205,-1027 237,-427 775,-933 1107,-1392 331,-458 458,-869 173,-1327 -284,-459 -980,-965 -1517,-1803 -538,-837 -917,-2007 -1312,-2513 -395,-506 -806,-348 -1423,-16 -616,332 -1439,838 -2102,1107 -664,268 -1170,300 -1471,-32 -300,-332 -395,-1027 -347,-1818 47,-790 237,-1675 189,-2482 -47,-806 -332,-1533 -822,-2245 -490,-711 -1185,-1406 -1913,-2339 -727,-933 -1485,-2102 -1912,-2972 -427,-869 -522,-1438 -206,-2023 316,-585 1044,-1186 1502,-1739 458,-554 648,-1059 648,-1866 0,-806 -190,-1912 -174,-2845 16,-933 237,-1692 506,-2482 269,-790 585,-1612 885,-2181 301,-570 585,-886 554,-1676 -32,-791 -380,-2055 -364,-3067 16,-1012 395,-1770 711,-1944 317,-174 570,237 1091,284 522,48 1312,-268 2039,-31 728,237 1392,1027 2008,1233 617,205 1186,-174 1755,-253 569,-79 1138,142 1391,-269 253,-411 190,-1454 221,-2150 32,-695 158,-1043 585,-1075 427,-31 1154,253 885,-838z"/>
   <path class="fil4" d="M61983 9170c791,-268 2087,143 3336,1376 1249,1233 2450,3288 3778,5722 1328,2435 2782,5248 4474,7588 1691,2340 3620,4205 5122,5454 1501,1249 2576,1881 3477,2229 901,348 1629,411 2324,695 696,285 1360,791 1123,933 -238,142 -1376,-79 -2530,-300 -1154,-222 -2324,-443 -2908,-238 -585,206 -585,838 -680,2182 -95,1344 -285,3399 -727,3762 -443,364 -1139,-964 -1913,-3161 -775,-2198 -1628,-5264 -2593,-7209 -964,-1944 -2039,-2766 -3019,-3809 -980,-1044 -1865,-2309 -2672,-4032 -806,-1723 -1533,-3904 -2608,-5106 -1075,-1201 -2498,-1422 -3446,-1912 -949,-490 -1423,-1249 -1518,-2103 -95,-853 190,-1802 980,-2071z"/>
   <path class="fil4" d="M76859 54492c869,1107 1944,2308 2592,3351 649,1044 870,1929 933,2988 63,1059 -32,2292 221,3146 253,854 854,1328 1692,1344 838,16 1913,-427 2624,-633 711,-205 1059,-174 1565,554 506,727 1170,2150 1359,3130 190,980 -94,1517 -363,1944 -269,427 -522,743 -1122,854 -601,110 -1550,15 -2135,806 -584,790 -806,2466 -1090,3414 -285,949 -633,1170 -1233,775 -601,-395 -1455,-1407 -2213,-2039 -759,-632 -1423,-885 -2087,-743 -664,142 -1328,680 -1960,980 -633,300 -1233,364 -2055,-32 -822,-395 -1866,-1249 -3573,-1170 -1707,80 -4079,1091 -5691,1644 -1612,554 -2466,649 -2988,-110 -521,-759 -711,-2371 901,-4426 1613,-2055 5027,-4553 6608,-4964 1581,-411 1328,1265 1771,2498 442,1233 1580,2023 3098,2402 1518,380 3415,348 4379,-600 964,-949 996,-2814 664,-4679 -332,-1866 -1028,-3731 -2213,-5391 -1186,-1660 -2862,-3114 -4727,-4553 -1865,-1438 -3920,-2861 -5454,-4695 -1533,-1833 -2545,-4078 -4236,-6307 -1692,-2229 -4063,-4442 -4806,-6244 -743,-1802 142,-3194 1992,-3225 1849,-32 4663,1296 6655,3304 1992,2007 3162,4695 3968,6718 806,2024 1249,3383 2371,3525 1123,143 2925,-932 3430,-585 506,348 -284,2119 -347,3510 -64,1391 600,2403 1470,3509z"/>
   <path class="fil2" d="M61178 78520c1912,-126 4663,-1739 6228,-2497 1565,-759 1944,-664 2703,-111 759,553 1897,1565 2798,1770 901,206 1565,-395 2039,-490 475,-94 759,317 1170,538 411,221 949,253 1344,-221 395,-475 648,-1455 948,-1565 301,-111 648,648 1218,1438 569,791 1359,1613 2228,1676 870,63 1818,-633 2451,-1423 632,-790 948,-1676 1122,-2292 174,-617 206,-964 474,-696 269,269 775,1154 1123,1233 348,79 537,-648 806,-790 269,-142 616,300 996,269 379,-32 790,-538 1217,-1044 427,-505 870,-1011 1201,-1185 332,-174 554,-16 1012,-48 459,-31 1154,-253 1549,-458 396,-206 490,-395 870,-411 379,-16 1043,142 1596,-190 554,-332 996,-1154 1724,-1533 727,-380 1738,-316 2323,-348 585,-32 743,-158 807,601 63,759 31,2403 379,3288 348,885 1075,1012 1438,1897 364,885 364,2529 491,3794 126,1264 379,2150 806,2434 427,285 1027,-31 774,1091 -253,1122 -1359,3683 -2071,5643 -711,1961 -1027,3320 -553,3826 474,506 1739,158 2593,221 853,64 1296,538 1407,1233 110,696 -111,1613 -459,2435 -348,822 -822,1549 -1675,2150 -854,600 -2087,1074 -2356,1549 -269,474 427,948 95,1407 -332,458 -1691,901 -2103,1438 -411,538 127,1170 -553,1802 -680,633 -2576,1265 -4062,1818 -1486,554 -2561,1028 -3526,1470 -964,443 -1818,854 -2814,1044 -995,189 -2134,158 -3288,95 -1154,-64 -2323,-159 -3019,-95 -695,63 -917,284 -696,664 222,379 886,917 743,1391 -142,474 -1090,885 -1960,1217 -869,332 -1660,585 -2561,790 -901,206 -1912,364 -3209,222 -1296,-143 -2877,-585 -4331,-807 -1454,-221 -2782,-221 -4237,-331 -1454,-111 -3035,-332 -1960,-680 1075,-348 4806,-822 7604,-1281 2798,-458 4663,-901 4094,-1912 -569,-1012 -3572,-2593 -5264,-3431 -1691,-838 -2071,-932 854,-1691 2924,-759 9153,-2182 13215,-3936 4063,-1755 5960,-3842 4837,-4616 -1122,-775 -5264,-237 -5121,-2071 142,-1834 4568,-6039 3873,-7193 -696,-1154 -6513,743 -7762,617 -1249,-127 2071,-2277 1344,-2862 -728,-585 -5502,396 -8189,332 -2687,-63 -3288,-1169 -3905,-1976 -616,-806 -1248,-1312 -2956,-1517 -1707,-206 -4489,-111 -7066,16 -2577,126 -4948,284 -5422,-95 -474,-380 948,-1297 1691,-2087 743,-790 807,-1454 1376,-1107 569,348 1644,1708 3557,1581z"/>
   <path class="fil2" d="M18590 61953c-31,-395 -600,648 -1059,1613 -458,964 -806,1849 -1770,2513 -965,664 -2545,1107 -3652,1281 -1107,174 -1739,79 -2118,505 -380,427 -506,1376 -870,2135 -363,758 -964,1327 -1391,1691 -427,364 -680,522 -743,1138 -63,617 63,1692 95,3051 32,1360 -32,3004 -648,4426 -617,1423 -1786,2624 -2387,3541 -601,917 -632,1550 -380,2419 253,869 791,1976 1281,3652 490,1675 933,3920 1344,5532 411,1613 790,2593 1106,3636 316,1044 569,2150 1217,3051 649,901 1692,1597 2372,1897 679,301 995,206 1343,-300 348,-506 727,-1423 1044,-1976 316,-553 569,-743 1486,158 916,901 2497,2893 3667,4173 1170,1281 1929,1850 2450,2198 522,347 807,474 206,-917 -601,-1391 -2087,-4300 -3336,-6513 -1249,-2213 -2260,-3731 -1581,-4774 680,-1043 3051,-1613 3304,-2292 253,-680 -1612,-1470 -3193,-2593 -1581,-1122 -2877,-2577 -3509,-4126 -633,-1549 -601,-3193 -332,-4331 269,-1138 774,-1771 2229,-2134 1454,-364 3857,-459 6497,-680 2640,-221 5517,-569 7730,-743 2213,-174 3762,-174 4806,-553 1043,-380 1580,-1138 1517,-2229 -63,-1091 -727,-2514 -1423,-2767 -695,-253 -1422,664 -2181,917 -759,253 -1549,-158 -2340,-727 -790,-569 -1580,-1296 -2165,-1170 -585,127 -965,1107 -1423,1028 -458,-79 -996,-1217 -1439,-2182 -442,-964 -790,-1754 -1327,-1027 -538,727 -1265,2972 -2261,3493 -996,522 -2261,-679 -2893,-1833 -632,-1154 -632,-2261 -569,-3273 63,-1011 190,-1928 506,-3304 316,-1375 822,-3209 790,-3604z"/>
  </g>
 </g>
</svg>
