<?xml version="1.0" standalone="no"?>
<!DOCTYPE svg PUBLIC "-//W3C//DTD SVG 20010904//EN"
 "http://www.w3.org/TR/2001/REC-SVG-20010904/DTD/svg10.dtd">
<svg version="1.0" xmlns="http://www.w3.org/2000/svg"
 width="700.000000pt" height="700.000000pt" viewBox="0 0 700.000000 700.000000"
 preserveAspectRatio="xMidYMid meet">
<metadata>
Created by potrace 1.11, written by Peter Selinger 2001-2013
</metadata>
<g transform="translate(0.000000,700.000000) scale(0.100000,-0.100000)"
fill="#000000" stroke="none">
<path d="M3225 6994 c-246 -25 -498 -70 -680 -123 -1007 -289 -1826 -1002
-2249 -1956 -102 -228 -176 -461 -226 -705 -56 -278 -64 -367 -64 -710 0 -343
8 -432 64 -710 224 -1101 978 -2034 2015 -2494 301 -134 618 -223 975 -273
179 -25 701 -25 880 0 734 103 1343 382 1890 863 556 490 951 1173 1100 1904
56 278 64 367 64 710 0 343 -8 432 -64 710 -224 1101 -978 2034 -2015 2494
-300 134 -622 224 -970 272 -114 15 -617 28 -720 18z m1847 -2187 c69 -34 129
-84 156 -133 10 -17 16 -14 69 37 104 101 198 139 345 139 186 0 316 -79 392
-240 l31 -65 3 -442 3 -443 -156 0 -155 0 0 378 c0 344 -2 381 -19 417 -49
110 -189 143 -319 76 -47 -24 -76 -56 -99 -106 -16 -36 -18 -80 -21 -402 l-3
-363 -149 0 -148 0 -4 373 c-4 414 -6 427 -73 486 -81 71 -252 55 -332 -31
-51 -54 -53 -71 -53 -463 l0 -365 -155 0 -155 0 0 580 0 580 140 0 140 0 0
-39 c0 -21 3 -52 6 -68 l6 -30 48 48 c89 89 174 120 321 116 99 -2 110 -4 181
-40z m-3830 -1444 l3 -527 213 237 214 237 195 0 195 0 -153 -162 c-85 -89
-189 -199 -233 -245 -43 -45 -76 -88 -73 -95 2 -7 109 -154 236 -326 127 -172
231 -315 231 -318 0 -2 -80 -4 -177 -4 l-178 0 -155 224 -155 225 -82 -82 -83
-82 0 -142 0 -143 -155 0 -155 0 0 865 0 865 155 0 155 0 2 -527z m1256 472
c49 -21 81 -52 103 -100 62 -134 -55 -283 -204 -261 -56 9 -130 70 -147 122
-30 91 11 186 100 232 52 26 96 28 148 7z m1069 -500 c198 -37 350 -172 408
-362 21 -66 29 -175 20 -266 l-7 -77 -419 0 c-338 0 -419 -3 -419 -13 0 -29
54 -119 91 -151 109 -93 309 -88 452 11 l38 27 97 -97 97 -97 -25 -24 c-42
-42 -141 -95 -225 -122 -294 -94 -622 14 -760 250 -55 93 -77 172 -82 292 -11
231 69 414 231 529 143 100 318 135 503 100z m1418 0 c86 -23 152 -63 208
-126 l49 -57 58 58 c211 211 581 174 714 -71 54 -97 56 -120 56 -566 l0 -413
-155 0 -155 0 0 363 c0 222 -4 377 -11 400 -35 126 -194 175 -330 101 -59 -32
-93 -78 -108 -144 -6 -26 -11 -189 -11 -382 l0 -338 -155 0 -155 0 0 373 c0
413 -2 423 -68 479 -110 92 -307 43 -370 -92 -14 -30 -17 -88 -20 -397 l-4
-363 -154 0 -154 0 0 580 0 580 139 0 c156 0 151 3 151 -79 0 -26 3 -51 7 -54
3 -4 29 15 58 42 112 106 261 144 410 106z m-2405 -595 l0 -580 -155 0 -155 0
0 580 0 580 155 0 155 0 0 -580z"/>
<path d="M3327 3063 c-59 -20 -130 -86 -157 -146 -11 -23 -20 -48 -20 -54 0
-10 62 -13 275 -13 l275 0 -6 28 c-12 53 -46 112 -82 142 -69 57 -188 75 -285
43z"/>
</g>
</svg>
