<?xml version="1.0" standalone="no"?>
<!DOCTYPE svg PUBLIC "-//W3C//DTD SVG 20010904//EN"
 "http://www.w3.org/TR/2001/REC-SVG-20010904/DTD/svg10.dtd">
<svg version="1.0" xmlns="http://www.w3.org/2000/svg"
 width="16.000000pt" height="16.000000pt" viewBox="0 0 16.000000 16.000000"
 preserveAspectRatio="xMidYMid meet">
<metadata>
Created by potrace 1.11, written by Peter Selinger 2001-2013
</metadata>
<g transform="translate(0.000000,16.000000) scale(0.012030,-0.012030)"
fill="#000000" stroke="none">
<path d="M498 1233 c-10 -20 -1 -650 11 -690 18 -64 84 -154 141 -192 82 -55
144 -66 385 -66 l209 0 1 478 c0 262 0 477 0 477 -1 0 -20 -18 -44 -40 -24
-22 -64 -52 -89 -67 -44 -26 -49 -27 -231 -28 -102 -1 -202 3 -221 8 -47 12
-107 54 -135 95 -13 18 -25 30 -27 25z"/>
<path d="M405 917 c-95 -24 -193 -97 -250 -187 -77 -122 -83 -287 -14 -421 30
-60 113 -142 173 -173 171 -86 353 -62 489 64 48 45 50 49 27 50 -14 0 -41
-13 -59 -30 -33 -27 -131 -86 -131 -77 0 2 14 32 30 66 17 35 30 64 28 65 -42
30 -86 48 -120 49 -42 2 -42 2 -43 42 -1 31 -27 95 -39 95 -1 0 -2 -30 -1 -67
l0 -68 -73 -3 c-84 -3 -84 -2 -97 105 l-7 62 77 -1 c42 0 78 2 81 5 2 2 2 11
-2 20 -4 12 -18 16 -48 16 -22 -1 -56 -1 -74 0 l-34 1 6 53 c4 28 10 66 14 82
8 29 11 30 62 30 43 0 54 3 56 18 2 14 -6 17 -41 17 -24 0 -46 3 -48 8 -7 10
39 102 65 129 22 24 32 50 20 56 -4 2 -25 -1 -47 -6z m-58 -119 l-32 -68 -52
0 c-29 0 -53 4 -53 8 0 15 74 80 120 106 24 14 45 24 46 23 1 -1 -12 -32 -29
-69z m-52 -153 c-4 -27 -8 -62 -10 -76 -1 -15 -5 -31 -8 -35 -5 -9 -133 -11
-142 -2 -7 7 15 108 30 138 12 23 19 25 75 25 l62 1 -7 -51z m-14 -168 c0 -7
2 -19 3 -27 2 -8 6 -41 10 -72 l7 -58 -61 0 -61 0 -19 43 c-10 23 -21 61 -25
84 l-6 41 76 1 c52 0 75 -3 76 -12z m65 -257 c18 -35 32 -65 31 -67 -14 -13
-167 102 -167 126 0 4 23 7 52 7 l51 -1 33 -65z m145 58 c3 -5 5 -41 4 -81 -1
-70 -2 -72 -26 -69 -13 1 -32 13 -42 25 -14 19 -67 119 -67 129 0 7 126 3 131
-4z m164 0 c8 -7 -35 -94 -61 -125 -11 -12 -28 -23 -39 -25 -18 -3 -20 3 -20
72 -1 41 0 77 1 80 4 8 111 6 119 -2z"/>
</g>
</svg>
